<?xml version="1.0" encoding="utf-8"?>
<!-- Generator: Adobe Illustrator 19.1.0, SVG Export Plug-In . SVG Version: 6.00 Build 0)  -->
<svg version="1.1" id="Layer_1" xmlns="http://www.w3.org/2000/svg" xmlns:xlink="http://www.w3.org/1999/xlink" x="0px" y="0px"
	 viewBox="0 0 208 141.3" style="enable-background:new 0 0 208 141.3;" xml:space="preserve">
<style type="text/css">
	.st0{fill:#FFFFFF;}
</style>
<g>
	<path class="st0" d="M49.9,112.3v-0.8c1.8-0.2,2-0.4,1.9-2.6l0-9.3h-0.1l-5.3,12.6h-0.7l-4.9-12.3h-0.1l-0.3,6.3
		c-0.1,2-0.1,3.1,0,3.9c0.1,1.1,0.6,1.3,2.2,1.5v0.8h-5.8v-0.8c1.4-0.1,1.8-0.6,2-1.4c0.1-0.8,0.3-2,0.5-4.6l0.4-4.8
		c0.2-2.8,0-3.1-2.1-3.3v-0.8h5l4.7,10.6l4.7-10.6h4.9v0.8c-1.9,0.2-2,0.4-2,2.4l0.2,9.1c0,2.2,0.2,2.4,2.1,2.6v0.8H49.9z"/>
	<path class="st0" d="M75.5,97.4c-1.3,0.1-1.9,0.6-2.1,1.4c-0.1,0.8-0.2,1.6-0.2,3.4v2.6c0,2.6-0.4,4.6-1.7,6.1
		c-1.1,1.2-2.8,1.8-4.5,1.8c-1.6,0-3.1-0.3-4.3-1.3c-1.4-1.1-2-2.9-2-5.7V100c0-2.3-0.2-2.4-2-2.6v-0.8H66v0.8c-1.8,0.2-2,0.3-2,2.6
		v5.3c0,3.6,1.3,5.7,3.9,5.7c2.9,0,4.1-2.2,4.1-6.2v-2.6c0-1.7-0.1-2.6-0.2-3.4c-0.1-0.8-0.7-1.3-2.3-1.4v-0.8h6.1V97.4z"/>
	<path class="st0" d="M91.7,112.5c-0.1,0-0.4,0-0.7,0c-3-0.1-4-0.8-5-2.3c-0.6-1-1.3-2.3-2-3.6c-0.4-0.8-0.8-1-1.6-1.1H82v3.5
		c0,2,0.2,2.2,2.1,2.4v0.8h-7.3v-0.8c1.8-0.2,2.1-0.4,2.1-2.4v-9.3c0-1.9-0.2-2.2-2-2.3v-0.8h6.8c2.1,0,3.3,0.2,4.3,0.9
		c1,0.6,1.6,1.7,1.6,3.2c0,2.1-1.4,3.3-3,3.9c0.3,0.7,1.3,2.3,2,3.4c0.9,1.3,1.4,2.1,1.9,2.6c0.5,0.6,0.9,0.8,1.5,1L91.7,112.5z
		 M82.6,104.6c1,0,1.8-0.2,2.4-0.7c0.8-0.7,1.2-1.6,1.2-2.9c0-2.6-1.5-3.5-2.9-3.5c-0.6,0-0.9,0.1-1.1,0.2C82,97.9,82,98.2,82,98.7
		v5.9H82.6z"/>
	<path class="st0" d="M99.8,96.6c1.9,0,3.3,0.3,4.2,0.9c1.1,0.8,1.8,2,1.8,3.6c0,3.2-2.4,4.7-4.9,5c-0.4,0-0.8,0-1,0l-1.6-0.4v3.3
		c0,2.1,0.2,2.2,2.3,2.4v0.8H93v-0.8c1.8-0.2,2-0.3,2-2.4v-9.3c0-2.1-0.2-2.2-1.9-2.4v-0.8H99.8z M98.2,104.8
		c0.3,0.1,0.8,0.2,1.3,0.2c0.9,0,2.8-0.6,2.8-3.9c0-2.7-1.5-3.6-3-3.6c-0.5,0-0.7,0.1-0.9,0.2c-0.1,0.1-0.2,0.4-0.2,0.8V104.8z"/>
	<path class="st0" d="M124.7,97.4c-1.9,0.2-2,0.3-2,2.4v9.3c0,2,0.2,2.2,2,2.3v0.8h-7.4v-0.8c1.9-0.2,2.1-0.3,2.1-2.4v-4.5h-6.6v4.5
		c0,2.1,0.2,2.2,2,2.4v0.8h-7.2v-0.8c1.8-0.2,2-0.3,2-2.4v-9.3c0-2.1-0.2-2.2-2.1-2.4v-0.8h7.3v0.8c-1.7,0.2-1.9,0.3-1.9,2.4v3.6
		h6.6v-3.6c0-2.1-0.2-2.2-2-2.4v-0.8h7.3V97.4z"/>
	<path class="st0" d="M141.5,97.4c-1.5,0.2-2,0.6-2.9,2c-0.9,1.4-1.5,2.5-2.7,4.7c-0.3,0.7-0.4,0.9-0.4,1.7v3.1
		c0,2.2,0.2,2.3,2.3,2.5v0.8h-7.9v-0.8c2.1-0.2,2.3-0.3,2.3-2.5v-2.7c0-0.6-0.1-0.8-0.3-1.3c-0.7-1.3-1.5-3-3-5.5
		c-0.9-1.6-1.3-1.9-2.6-2.1v-0.8h6.9v0.8c-1.6,0.2-1.6,0.5-1.1,1.4c0.8,1.7,1.8,3.5,2.8,5.3c0.7-1.4,1.9-3.7,2.5-5.1
		c0.4-1,0.4-1.3-1.4-1.5v-0.8h5.6V97.4z"/>
	<path class="st0" d="M165.2,102.8c-1.5,0.2-2,0.5-2.9,1.6c-0.7,0.8-1.3,1.8-2,2.8c1.5,1.5,3.1,3.4,4.2,5.1l-0.1,0.3
		c-2.4,0-3.8-0.6-4.2-0.9c-0.3-0.3-1-1.1-1.9-2c-1.5,2-3,2.9-4.7,2.9c-3.3,0-5.1-2.4-5.1-4.5c0-2,1.2-2.9,3.4-4.4
		c-1-0.9-1.6-2-1.6-3.4c0-2.2,2-4,4.4-4c2.4,0,4.1,1.5,4.1,3.5c0,0.8-0.4,1.5-1,2c-0.5,0.4-1.2,0.9-1.9,1.4c0.7,0.6,2.1,1.8,3.8,3.4
		c0.4-0.6,0.8-1.3,1.2-2.1c0.5-1.1,0.3-1.4-1.3-1.7V102h5.7V102.8z M154.7,110.4c1.1,0,2.2-0.7,2.9-1.4c-1.8-1.8-3-2.9-5.1-4.7
		c-0.7,0.7-1,1.7-1,2.7C151.5,109.3,153.1,110.4,154.7,110.4L154.7,110.4z M154.4,97.2c-0.9,0-1.6,1-1.6,2.2c0,1.2,0.7,2,2.3,3.3
		c0.6-0.5,1.2-1.5,1.2-3C156.3,98.4,155.7,97.2,154.4,97.2L154.4,97.2z"/>
	<path class="st0" d="M18.1,129.2c-1.2,0.2-1.4,0.3-1.4,2v1.9c0,0.9,0,1.6,0.1,2.3c-1.5,0.4-3.6,0.9-5.5,0.9c-5.6,0-9.2-3.2-9.2-8
		c0-5.5,4.5-8.4,9.6-8.4c2,0,3.8,0.5,4.7,0.7c0.1,0.8,0.2,2.1,0.4,4l-0.9,0.2c-0.6-2.7-2.4-3.8-4.7-3.8c-2.9,0-5.4,2.6-5.4,7
		c0,3.7,1.8,7.5,5.8,7.5c0.5,0,1-0.1,1.4-0.3c0.4-0.2,0.6-0.6,0.6-1.3v-2.3c0-1.7-0.1-1.9-2.7-2.1v-0.8h7.3V129.2z"/>
	<path class="st0" d="M34.7,136.1c-0.1,0-0.4,0-0.7,0c-3.1-0.1-4-0.8-5-2.3c-0.6-1-1.3-2.3-2-3.6c-0.4-0.8-0.8-1-1.6-1.1H25v3.5
		c0,2,0.2,2.2,2.1,2.4v0.8h-7.3V135c1.8-0.2,2.1-0.4,2.1-2.4v-9.3c0-1.9-0.2-2.2-2-2.3v-0.8h6.8c2.1,0,3.3,0.2,4.3,0.9
		c1,0.6,1.6,1.7,1.6,3.2c0,2.1-1.4,3.3-3,3.9c0.3,0.7,1.3,2.3,2,3.4c0.9,1.3,1.4,2.1,1.9,2.6c0.5,0.6,0.9,0.8,1.5,1L34.7,136.1z
		 M25.6,128.2c1,0,1.8-0.2,2.4-0.7c0.8-0.7,1.2-1.6,1.2-2.9c0-2.6-1.5-3.5-2.9-3.5c-0.6,0-0.9,0.1-1.1,0.2c-0.2,0.1-0.2,0.4-0.2,0.9
		v5.9H25.6z"/>
	<path class="st0" d="M45,135.9V135c1.4-0.2,1.5-0.5,1.2-1.6c-0.2-0.7-0.6-1.7-1-2.7h-4.6c-0.3,0.8-0.6,1.6-0.9,2.6
		c-0.3,1.2-0.3,1.5,1.5,1.7v0.8h-5.4l0-0.8c1.6-0.2,1.9-0.5,2.7-2.5l5-12.4l1.2-0.3c1.5,4.2,3,8.5,4.6,12.6c0.8,2.1,1.1,2.4,2.7,2.6
		v0.8H45z M43,124.2L43,124.2c-0.8,1.8-1.4,3.5-2,5.2h3.8L43,124.2z"/>
	<path class="st0" d="M70.2,121c-1.3,0.1-1.8,0.4-1.9,1.5c-0.1,0.8-0.2,1.9-0.2,4v9.6h-1.2l-10.1-12.1h-0.1v5.4
		c0,2.1,0.1,3.2,0.2,3.9c0.1,1.1,0.5,1.5,2.3,1.6v0.8h-5.9V135c1.4-0.1,1.9-0.5,2-1.5c0.1-0.8,0.2-1.9,0.2-4v-5.1c0-1.6,0-2-0.5-2.6
		c-0.4-0.6-1-0.8-2-0.9v-0.8h4.5l9.2,10.6h0.1v-4.3c0-2.1-0.1-3.3-0.2-4c-0.1-1-0.6-1.5-2.4-1.5v-0.8h5.9V121z"/>
	<path class="st0" d="M84.8,124.3c-0.3-1.3-0.6-2.1-1.1-2.5c-0.4-0.4-1-0.6-2.4-0.6h-1.1v11.4c0,2.1,0.2,2.2,2.4,2.4v0.8h-7.9V135
		c2-0.2,2.3-0.3,2.3-2.4v-11.4h-0.8c-2,0-2.4,0.3-2.8,0.7c-0.4,0.4-0.7,1.2-1,2.4h-0.9c0.1-1.8,0.2-3.5,0.3-4.8h0.6
		c0.4,0.6,0.7,0.6,1.4,0.6h9.7c0.7,0,1-0.1,1.4-0.6h0.6c0,1,0.1,3.1,0.3,4.7L84.8,124.3z"/>
	<path class="st0" d="M99.8,131.8c-0.2,1-0.7,3.4-0.9,4.1H87.1V135c2.1-0.2,2.3-0.3,2.3-2.4v-9.3c0-2.1-0.2-2.2-2.1-2.4v-0.8h7.4
		v0.8c-1.9,0.2-2.1,0.3-2.1,2.4v9.4c0,1.1,0.1,1.6,0.6,1.8c0.4,0.2,1.1,0.2,1.8,0.2c1,0,1.9-0.2,2.5-0.8c0.5-0.5,0.9-1.3,1.4-2.5
		L99.8,131.8z"/>
	<path class="st0" d="M110.4,135.9V135c1.4-0.2,1.5-0.5,1.2-1.6c-0.2-0.7-0.6-1.7-1-2.7h-4.6c-0.3,0.8-0.6,1.6-0.9,2.6
		c-0.3,1.2-0.3,1.5,1.5,1.7v0.8h-5.4l0-0.8c1.6-0.2,1.9-0.5,2.7-2.5l5-12.4l1.2-0.3c1.5,4.2,3,8.5,4.6,12.6c0.8,2.1,1.1,2.4,2.7,2.6
		v0.8H110.4z M108.3,124.2L108.3,124.2c-0.8,1.8-1.4,3.5-2,5.2h3.8L108.3,124.2z"/>
	<path class="st0" d="M135.6,121c-1.3,0.1-1.8,0.4-1.9,1.5c-0.1,0.8-0.2,1.9-0.2,4v9.6h-1.2l-10.1-12.1h-0.1v5.4
		c0,2.1,0.1,3.2,0.2,3.9c0.1,1.1,0.5,1.5,2.3,1.6v0.8h-5.9V135c1.4-0.1,1.9-0.5,2-1.5c0.1-0.8,0.2-1.9,0.2-4v-5.1c0-1.6,0-2-0.5-2.6
		c-0.4-0.6-1-0.8-2-0.9v-0.8h4.5l9.2,10.6h0.1v-4.3c0-2.1-0.1-3.3-0.2-4c-0.1-1-0.6-1.5-2.4-1.5v-0.8h5.9V121z"/>
	<path class="st0" d="M144.5,120.2c3,0,5.4,0.6,6.9,2.1c1.2,1.1,2.1,2.9,2.1,5.1c0,3-1.2,5.1-3,6.5c-1.8,1.4-4.3,2-7.3,2H137V135
		c1.9-0.2,2.2-0.3,2.2-2.4v-9.2c0-2.1-0.2-2.2-1.9-2.4v-0.8H144.5z M142.4,132.5c0,1.7,0.4,2.3,2.1,2.3c3.2,0,5.5-2.7,5.5-7
		c0-2.3-0.7-4.1-1.8-5.2c-1-1-2.3-1.5-3.9-1.5c-0.9,0-1.4,0.2-1.5,0.3c-0.2,0.2-0.3,0.6-0.3,1.3V132.5z"/>
	<path class="st0" d="M156.5,132c1.2,0,2.8,1.2,2.8,3.1c0,2.3-2.1,3.6-4.1,4l-0.3-0.8c1.5-0.6,2.2-1.3,2.2-2.3
		c0-0.8-0.6-1.5-1.8-1.8c-0.1,0-0.3-0.3-0.3-0.9C154.9,132.5,155.6,132,156.5,132L156.5,132z"/>
	<path class="st0" d="M173.6,120.2c1.9,0,3.3,0.3,4.2,0.9c1.1,0.8,1.8,2,1.8,3.6c0,3.2-2.4,4.7-4.9,5c-0.4,0-0.8,0-1,0l-1.6-0.4v3.3
		c0,2.1,0.2,2.2,2.3,2.4v0.8h-7.5v-0.8c1.8-0.2,2-0.3,2-2.4v-9.3c0-2.1-0.2-2.2-1.9-2.4v-0.8H173.6z M172,128.4
		c0.3,0.1,0.8,0.2,1.3,0.2c0.9,0,2.8-0.6,2.8-3.9c0-2.7-1.5-3.6-3-3.6c-0.5,0-0.8,0.1-0.9,0.2c-0.1,0.1-0.2,0.4-0.2,0.8V128.4z"/>
	<path class="st0" d="M180,136.2c-1,0-1.7-0.8-1.7-1.8c0-1.1,0.8-1.8,1.8-1.8c1,0,1.8,0.8,1.8,1.8
		C181.9,135.4,181.1,136.2,180,136.2L180,136.2z"/>
	<path class="st0" d="M193.1,135.9V135c1.4-0.2,1.5-0.5,1.2-1.6c-0.2-0.7-0.6-1.7-1-2.7h-4.6c-0.3,0.8-0.6,1.6-0.9,2.6
		c-0.3,1.2-0.3,1.5,1.5,1.7v0.8h-5.4l0-0.8c1.6-0.2,1.9-0.5,2.7-2.5l5-12.4l1.2-0.3c1.5,4.2,3,8.5,4.6,12.6c0.8,2.1,1.1,2.4,2.7,2.6
		v0.8H193.1z M191.1,124.2L191.1,124.2c-0.7,1.8-1.4,3.5-2,5.2h3.8L191.1,124.2z"/>
	<path class="st0" d="M203.8,136.2c-1,0-1.7-0.8-1.7-1.8c0-1.1,0.8-1.8,1.8-1.8c1,0,1.8,0.8,1.8,1.8
		C205.6,135.4,204.8,136.2,203.8,136.2L203.8,136.2z"/>
</g>
<g>
	<path class="st0" d="M59.9,46.7h9.9C72.3,33.8,81.7,23.5,94,19.5l-1.2-9.8C75.7,14.4,62.6,28.9,59.9,46.7z"/>
	<path class="st0" d="M116,9.4l-1.1,9.7c12.8,3.7,22.7,14.3,25.3,27.5h9.9C147.2,28.5,133.6,13.8,116,9.4z"/>
	<path class="st0" d="M105,27.5c-12,0-22.1,8.2-25.2,19.2h1.6C84.4,36.5,93.8,29,105,29c11.1,0,20.6,7.5,23.6,17.7h1.6
		C127.1,35.6,117,27.5,105,27.5z"/>
</g>
<polygon class="st0" points="94.8,3.4 113.9,3.4 111.6,23.1 97.2,23.1 "/>
<g>
	<path class="st0" d="M73.9,79.3v-1.4c3.3-0.3,3.5-0.6,3.4-4.7l-0.1-16.7h-0.2L67.3,79h-1.1l-9-22h-0.1l-0.6,11.4
		c-0.2,3.5-0.2,5.5,0,7c0.1,1.9,1,2.3,3.9,2.5v1.4H50.4v-1.4c2.4-0.2,3.2-0.9,3.5-2.5c0.3-1.4,0.6-3.4,0.8-7.9l0.6-8.6
		c0.3-5.1,0-5.5-3.7-5.9v-1.4h8.1l8.7,19.5l8.9-19.5h8.1v1.4c-3.5,0.3-3.7,0.6-3.7,4.4l0.4,15.7c0.1,4.1,0.3,4.4,3.7,4.7v1.4H73.9z"
		/>
	<path class="st0" d="M124.2,62.6c-2.8,0.3-3.5,0.9-5,2.9c-1.2,1.6-2.2,3.2-3.6,5.2c2.4,2.3,5.5,5.9,7.2,8.7l-0.3,0.5
		c-3.5-0.1-6-1.1-6.5-1.6c-0.6-0.6-2-2.2-3.5-3.7c-2.8,3.7-5.6,5.3-8.5,5.3c-5.6,0-8.7-4.2-8.7-7.8c0-3.7,2.4-5.3,6.1-7.9
		c-1.8-1.7-2.9-3.6-2.9-6c0-3.8,3.4-7,7.4-7c4,0,6.9,2.6,6.9,6.1c0,1.6-0.8,2.7-1.8,3.6c-0.8,0.7-2,1.5-3.4,2.5
		c1.3,1.1,3.9,3.4,6.8,6.2c0.8-1.3,1.5-2.5,2.3-4.1c0.8-1.9,0.5-2.5-2.5-2.9l0-1.4h9.9V62.6z M105.8,76.4c2.2,0,4.4-1.4,5.6-3
		c-2.8-2.9-5.1-5.1-8.8-8.2c-1.7,1.5-2.5,3.4-2.5,5.2C100,74.5,103,76.4,105.8,76.4L105.8,76.4z M105.6,52.8c-1.7,0-3.1,1.7-3.1,3.9
		c0,2.1,1.2,3.6,3.9,5.7c1.4-1.1,2.5-2.8,2.5-5.3C108.9,54.8,107.7,52.8,105.6,52.8L105.6,52.8z"/>
	<path class="st0" d="M158.7,67.6c-2.3,0.4-2.5,0.6-2.5,3.3v3.4c0,1.5,0,2.9,0.3,4c-2.6,0.6-6.2,1.5-9.6,1.5c-9.7,0-16-5.6-16-14.1
		c0-9.8,7.9-14.7,16.6-14.7c3.5,0,6.8,0.8,8.2,1.2c0.1,1.4,0.3,3.7,0.7,6.8l-1.4,0.3c-1.1-4.9-4.2-6.7-8.2-6.7
		c-5.6,0-10.2,4.7-10.2,12.4c0,6.3,3.3,13.2,10.7,13.2c1.1,0,2.2-0.2,2.8-0.6c0.7-0.4,1.1-1.1,1.1-2.5v-3.9c0-3-0.3-3.3-4.6-3.7
		v-1.4h12V67.6z"/>
</g>
</svg>
